<svg preserveAspectRatio="none" overflow="visible" style="display: block;" width="17.8125" height="17.7666" viewBox="0 0 17.8125 17.7666" fill="none" xmlns="http://www.w3.org/2000/svg">
<g id="Group">
<path id="Vector" d="M8.90625 0C6.54498 0.0026468 4.28118 0.941831 2.6115 2.6115C0.941831 4.28118 0.0026468 6.54498 0 8.90625C0.489375 20.7219 17.325 20.7181 17.8125 8.90625C17.8099 6.54498 16.8707 4.28118 15.201 2.6115C13.5313 0.941831 11.2675 0.0026468 8.90625 0ZM8.90625 16.875C6.79357 16.8725 4.76813 16.0322 3.27423 14.5383C1.78034 13.0444 0.939981 11.0189 0.9375 8.90625C1.37531 -1.66531 16.4387 -1.6625 16.875 8.90625C16.8725 11.0189 16.0322 13.0444 14.5383 14.5383C13.0444 16.0322 11.0189 16.8725 8.90625 16.875Z" fill="#E74C3C"/>
<path id="Vector_2" d="M8.90594 3.75C8.65186 3.75174 8.40086 3.80582 8.16861 3.90888C7.93636 4.01193 7.72785 4.16175 7.55607 4.34897C7.3843 4.5362 7.25296 4.75682 7.17024 4.99706C7.08752 5.23731 7.05521 5.49202 7.07531 5.74531L7.37156 9.17969C7.55125 11.0394 10.2606 11.0416 10.4409 9.17969L10.7372 5.74531C10.7572 5.49201 10.7249 5.23729 10.6421 4.99704C10.5594 4.75679 10.428 4.53618 10.2562 4.34896C10.0844 4.16174 9.87588 4.01193 9.64361 3.90888C9.41135 3.80582 9.16003 3.75174 8.90594 3.75ZM9.50719 9.09938C9.49272 9.24872 9.42316 9.38733 9.31206 9.48819C9.20097 9.58904 9.0563 9.64492 8.90625 9.64492C8.7562 9.64492 8.61153 9.58904 8.50043 9.48819C8.38934 9.38733 8.31978 9.24872 8.30531 9.09938L8.00906 5.665C7.99984 5.54155 8.01619 5.41752 8.0571 5.30068C8.09801 5.18384 8.16259 5.07669 8.2468 4.98596C8.33102 4.89522 8.43305 4.82283 8.54652 4.77334C8.65999 4.72384 8.78245 4.69829 8.90625 4.69829C9.03004 4.69829 9.15251 4.72384 9.26598 4.77334C9.37945 4.82283 9.48148 4.89522 9.56569 4.98596C9.64991 5.07669 9.71449 5.18384 9.7554 5.30068C9.7963 5.41752 9.81266 5.54155 9.80344 5.665L9.50719 9.09938ZM8.90625 11.0928C6.94437 11.1553 6.94437 14.0006 8.90625 14.0625C10.8687 14.0003 10.8678 11.155 8.90625 11.0928ZM8.90625 13.125C8.76335 13.1216 8.62745 13.0624 8.52759 12.9601C8.42773 12.8579 8.37183 12.7206 8.37183 12.5777C8.37183 12.4347 8.42773 12.2974 8.52759 12.1952C8.62745 12.0929 8.76335 12.0337 8.90625 12.0303C9.04915 12.0337 9.18505 12.0929 9.28491 12.1952C9.38477 12.2974 9.44067 12.4347 9.44067 12.5777C9.44067 12.7206 9.38477 12.8579 9.28491 12.9601C9.18505 13.0624 9.04915 13.1216 8.90625 13.125Z" fill="#E74C3C"/>
</g>
</svg>
